<?xml version="1.0" standalone="no"?>
<!DOCTYPE svg PUBLIC "-//W3C//DTD SVG 20010904//EN"
 "http://www.w3.org/TR/2001/REC-SVG-20010904/DTD/svg10.dtd">
<svg version="1.0" xmlns="http://www.w3.org/2000/svg"
 width="399.000000pt" height="399.000000pt" viewBox="0 0 399.000000 399.000000"
 preserveAspectRatio="xMidYMid meet">
<metadata>
Created by potrace 1.11, written by Peter Selinger 2001-2013
</metadata>
<g transform="translate(0.000000,399.000000) scale(0.100000,-0.100000)"
fill="#000000" stroke="none">
<path d="M0 1995 l0 -1995 1995 0 1995 0 0 1995 0 1995 -1995 0 -1995 0 0
-1995z m2132 1644 c107 -23 207 -86 274 -171 l35 -46 173 -4 c169 -3 174 -4
231 -33 72 -37 138 -114 160 -187 9 -31 15 -90 15 -150 l0 -98 -120 0 -120 0
0 90 c0 128 5 125 -205 133 -92 4 -203 7 -245 7 l-78 0 -6 44 c-14 90 -94 163
-190 173 -107 11 -215 -72 -232 -178 l-6 -36 -232 -7 c-230 -7 -231 -7 -253
-32 -20 -22 -23 -36 -23 -110 l0 -84 -115 0 -115 0 0 118 c0 113 2 122 31 181
37 74 106 133 181 156 36 10 95 15 190 15 l139 0 73 75 c125 128 276 178 438
144z m-579 -1014 c131 -28 213 -92 271 -214 29 -62 31 -72 31 -181 -1 -95 -5
-125 -23 -172 -33 -82 -99 -150 -185 -193 -94 -46 -149 -55 -328 -55 l-149 0
0 -155 0 -155 110 0 110 0 0 -80 0 -80 -280 0 -280 0 0 80 0 80 80 0 80 0 0
490 0 490 -80 0 -80 0 0 80 0 80 328 0 c246 0 344 -4 395 -15z m1076 -450
c195 -256 358 -465 363 -465 4 0 7 171 6 383 l-3 382 -97 3 -98 3 0 79 0 80
260 0 260 0 0 -80 0 -80 -75 0 -75 0 0 -570 0 -570 -57 0 -58 1 -365 474
c-201 261 -368 474 -372 474 -5 1 -8 -177 -8 -394 l0 -395 100 0 100 0 0 -80
0 -80 -260 0 -260 0 0 80 0 80 75 0 75 0 0 490 0 490 -85 0 -85 0 0 80 0 80
153 0 152 -1 354 -464z m-1339 -1222 c0 -155 -2 -153 288 -153 l220 0 6 -45
c20 -132 186 -217 304 -156 68 35 122 113 122 175 l0 25 246 3 c298 4 284 -3
284 139 l0 89 121 0 121 0 -4 -122 c-4 -108 -8 -129 -31 -174 -33 -64 -112
-137 -175 -159 -35 -13 -90 -19 -212 -22 l-165 -5 -29 -40 c-38 -53 -132 -121
-204 -148 -31 -12 -91 -24 -132 -27 -146 -11 -255 32 -367 143 l-73 72 -152 4
c-138 4 -158 6 -209 30 -75 34 -133 88 -163 151 -20 43 -25 74 -31 175 l-6
122 120 0 121 0 0 -77z"/>
<path d="M1170 2225 l0 -257 158 4 c133 3 164 7 202 25 91 42 130 111 131 230
0 65 -4 85 -28 132 -24 48 -37 60 -87 86 -58 29 -65 30 -218 34 l-158 3 0
-257z"/>
</g>
</svg>
